  <svg
                        xmlns="http://www.w3.org/2000/svg"
                        width="32"
                        height="32"
                        viewBox="0 0 32 32"
                    >
                        <rect
                            x="0"
                            y="0"
                            width="32"
                            height="32"
                            rx="6"
                            ry="6"
                            fill="#2f80ed"
                        />

                        <svg
                            x="6"
                            y="6"
                            width="20"
                            height="20"
                            viewBox="0 0 250 306"
                        >
                            <g transform="translate(0,306) scale(0.1,-0.1)" fill="#ffffff">
                                <path d="M979 2528 c-28 -7 -109 -83 -392 -366 -251 -252 -357 -364 -357 -379 0 -28 100 -139 373 -411 189 -188 218 -213 242 -210 31 3 135 103 890 857 379 378 445 447 445 472 0 18 -7 32 -19 39 -25 13 -1131 12 -1182 -2z" />
                                <path d="M1262 1421 c-164 -159 -447 -440 -629 -623 -352 -353 -359 -362 -313 -403 19 -17 49 -18 592 -11 527 7 575 9 608 26 40 21 670 649 670 669 0 29 -36 70 -294 331 -267 270 -298 299 -324 300 -8 0 -147 -130 -310 -289z" />
                            </g>
                        </svg>
                    </svg>