<?xml version="1.0" encoding="utf-8"?>
<!-- Generator: Adobe Illustrator 27.1.1, SVG Export Plug-In . SVG Version: 6.00 Build 0)  -->
<svg version="1.1" id="Layer_1" xmlns="http://www.w3.org/2000/svg" xmlns:xlink="http://www.w3.org/1999/xlink" x="0px" y="0px"
	 viewBox="0 0 120.2 116.3" style="enable-background:new 0 0 120.2 116.3;" xml:space="preserve">
<path d="M29.6,76.3c8.7-2.1,19.2-3.3,30.6-3.3s21.9,1.2,30.6,3.3c8.2,1.9,17.5,6.5,21.6,9.7L62.7,7.3c-1.2-1.9-3.9-1.9-5.1,0L8,86
	C12,82.8,21.3,78.3,29.6,76.3z"/>
<path d="M108.3,91.8c0-0.1,0-0.1-0.1-0.3c-0.1-0.3-0.2-0.7-0.4-1.2c-0.1-0.1-0.1-0.2-0.2-0.4c-3.8-2.6-11.4-6.2-18.3-7.9
	c-8.2-1.9-18.3-3.1-29.2-3.1s-21,1.3-29.1,3.2c-6.9,1.6-14.6,5.3-18.4,7.9c0,0.1-0.1,0.1-0.1,0.2c-0.2,0.3-0.3,0.7-0.4,1
	S12,91.7,12,91.7l0,0c0,0.1,0,1,2.1,2.7c2,1.6,5.2,3.3,9.8,4.9c9,3.1,21.8,5.1,36.3,5.1s27.3-2,36.3-5.1c4.5-1.6,7.8-3.3,9.8-4.9
	C108,92.9,108.2,92,108.3,91.8z M2.9,82.9L52.5,4.2c3.5-5.6,11.8-5.6,15.3,0l49.6,78.7c0.1,0.1,0.1,0.2,0.2,0.3l-5.3,2.9
	c5.3-2.9,5.3-2.9,5.3-2.9l0,0l0,0l0,0v0.1c0,0,0.1,0.1,0.1,0.2c0.1,0.1,0.2,0.3,0.3,0.5c0.2,0.4,0.5,1.1,0.8,1.8
	c0.5,1.2,1.4,3.6,1.4,6c0,5.1-3,9-6.4,11.8c-3.5,2.8-8.2,5.1-13.4,6.9c-10.6,3.6-24.8,5.8-40.3,5.8s-29.7-2.1-40.3-5.8
	c-5.3-1.8-10-4.1-13.4-6.9C3,100.7,0,96.7,0,91.7c0-2.6,0.9-4.9,1.5-6.2c0.3-0.7,0.7-1.4,0.9-1.8c0.1-0.2,0.2-0.4,0.3-0.5
	C2.8,83,2.8,83,2.9,82.9L2.9,82.9L2.9,82.9z M96.2,71.7l-36-57.2L24.1,71.7c1.4-0.4,2.7-0.8,4.1-1.1c9.2-2.2,20.2-3.4,32-3.4
	s22.8,1.2,32,3.4C93.5,70.9,94.8,71.2,96.2,71.7z"/>
</svg>
