<?xml version="1.0" encoding="utf-8"?>
<!-- Generator: Adobe Illustrator 27.1.1, SVG Export Plug-In . SVG Version: 6.00 Build 0)  -->
<svg version="1.1" id="Layer_1" xmlns="http://www.w3.org/2000/svg" xmlns:xlink="http://www.w3.org/1999/xlink" x="0px" y="0px"
	 viewBox="0 0 48 48" style="enable-background:new 0 0 48 48;" xml:space="preserve">
<path d="M13.8,30.6c2.9-0.7,6.4-1.1,10.2-1.1s7.3,0.4,10.2,1.1c2.7,0.7,5.8,2.2,7.2,3.3L24.8,7.4c-0.4-0.6-1.3-0.6-1.7,0L6.6,33.8
	C8,32.8,11.1,31.2,13.8,30.6z"/>
<path d="M40,35.8C40,35.7,40,35.7,40,35.8c-0.1-0.2-0.1-0.3-0.2-0.5c0,0,0-0.1-0.1-0.1c-1.3-0.9-3.8-2.1-6.1-2.6
	c-2.7-0.6-6.1-1-9.7-1s-7,0.4-9.7,1c-2.3,0.5-4.8,1.8-6.1,2.7c0,0,0,0,0,0.1c-0.1,0.1-0.1,0.2-0.1,0.3c0,0.1,0,0.1,0,0.1
	c0,0,0,0,0,0c0,0,0,0.3,0.7,0.9c0.7,0.5,1.7,1.1,3.2,1.6c3,1,7.3,1.7,12.1,1.7s9.1-0.7,12.1-1.7c1.5-0.5,2.6-1.1,3.2-1.6
	C39.9,36.1,40,35.9,40,35.8z M5,32.8L21.5,6.3c1.2-1.9,3.9-1.9,5.1,0l16.5,26.5c0,0,0,0.1,0.1,0.1l-1.7,1c1.7-1,1.7-1,1.7-1l0,0l0,0
	l0,0l0,0c0,0,0,0,0,0.1c0,0,0.1,0.1,0.1,0.2c0.1,0.1,0.2,0.4,0.3,0.6c0.2,0.4,0.5,1.2,0.5,2c0,1.7-1,3-2.1,4c-1.2,1-2.7,1.7-4.5,2.3
	C33.9,43.3,29.1,44,24,44s-9.9-0.7-13.4-1.9c-1.8-0.6-3.3-1.4-4.5-2.3C5,38.8,4,37.4,4,35.7c0-0.9,0.3-1.6,0.5-2.1
	c0.1-0.2,0.2-0.5,0.3-0.6C4.8,33,4.9,32.9,5,32.8C4.9,32.8,4.9,32.8,5,32.8L5,32.8L5,32.8z M36,29L24,9.8L12,29
	c0.5-0.1,0.9-0.3,1.3-0.4c3.1-0.7,6.7-1.1,10.6-1.1s7.6,0.4,10.6,1.1C35.1,28.7,35.5,28.9,36,29z"/>
</svg>
